<?xml version="1.0" encoding="UTF-8" standalone="no"?>
<!DOCTYPE svg PUBLIC "-//W3C//DTD SVG 1.1//EN"
 "http://www.w3.org/Graphics/SVG/1.1/DTD/svg11.dtd">
<!-- Generated by graphviz version 2.40.1 (20161225.0304)
 -->
<!-- Title: unnamed Pages: 1 -->
<svg width="1026pt" height="483pt"
 viewBox="0.00 0.00 1026.42 483.00" xmlns="http://www.w3.org/2000/svg" xmlns:xlink="http://www.w3.org/1999/xlink">
<g id="graph0" class="graph" transform="scale(1 1) rotate(0) translate(4 479)">
<title>unnamed</title>
<polygon fill="#ffffff" stroke="transparent" points="-4,4 -4,-479 1022.4175,-479 1022.4175,4 -4,4"/>
<!-- Node0x7fe8f7849138 -->
<g id="node1" class="node">
<title>Node0x7fe8f7849138</title>
<polygon fill="none" stroke="#000000" points="283.1348,-438.5 283.1348,-474.5 387.8174,-474.5 387.8174,-438.5 283.1348,-438.5"/>
<text text-anchor="middle" x="335.4761" y="-452.3" font-family="Times,serif" font-size="14.00" fill="#000000">CompoundStmt</text>
</g>
<!-- Node0x7fe8f7848cd8 -->
<g id="node2" class="node">
<title>Node0x7fe8f7848cd8</title>
<polygon fill="none" stroke="#000000" points="83.0347,-365.5 83.0347,-401.5 151.9175,-401.5 151.9175,-365.5 83.0347,-365.5"/>
<text text-anchor="middle" x="117.4761" y="-379.3" font-family="Times,serif" font-size="14.00" fill="#000000">DeclStmt</text>
</g>
<!-- Node0x7fe8f7849138&#45;&gt;Node0x7fe8f7848cd8 -->
<g id="edge1" class="edge">
<title>Node0x7fe8f7849138&#45;&gt;Node0x7fe8f7848cd8</title>
<path fill="none" stroke="#000000" d="M282.9822,-438.9218C245.9003,-426.5045 196.7585,-410.0487 161.6764,-398.301"/>
<polygon fill="#000000" stroke="#000000" points="162.7699,-394.9762 152.176,-395.1197 160.5471,-401.614 162.7699,-394.9762"/>
</g>
<!-- Node0x7fe8f7848d88 -->
<g id="node3" class="node">
<title>Node0x7fe8f7848d88</title>
<polygon fill="none" stroke="#000000" points="182.0347,-365.5 182.0347,-401.5 250.9175,-401.5 250.9175,-365.5 182.0347,-365.5"/>
<text text-anchor="middle" x="216.4761" y="-379.3" font-family="Times,serif" font-size="14.00" fill="#000000">DeclStmt</text>
</g>
<!-- Node0x7fe8f7849138&#45;&gt;Node0x7fe8f7848d88 -->
<g id="edge2" class="edge">
<title>Node0x7fe8f7849138&#45;&gt;Node0x7fe8f7848d88</title>
<path fill="none" stroke="#000000" d="M306.0603,-438.4551C290.613,-428.979 271.4945,-417.2508 254.8916,-407.0658"/>
<polygon fill="#000000" stroke="#000000" points="256.32,-403.836 245.9658,-401.5904 252.6596,-409.8028 256.32,-403.836"/>
</g>
<!-- Node0x7fe8f78490c8 -->
<g id="node4" class="node">
<title>Node0x7fe8f78490c8</title>
<polygon fill="none" stroke="#000000" points="364.5244,-365.5 364.5244,-401.5 426.4277,-401.5 426.4277,-365.5 364.5244,-365.5"/>
<text text-anchor="middle" x="395.4761" y="-379.3" font-family="Times,serif" font-size="14.00" fill="#000000">ForStmt</text>
</g>
<!-- Node0x7fe8f7849138&#45;&gt;Node0x7fe8f78490c8 -->
<g id="edge3" class="edge">
<title>Node0x7fe8f7849138&#45;&gt;Node0x7fe8f78490c8</title>
<path fill="none" stroke="#000000" d="M350.3075,-438.4551C357.5192,-429.6809 366.3178,-418.9759 374.227,-409.353"/>
<polygon fill="#000000" stroke="#000000" points="376.9615,-411.5382 380.6073,-401.5904 371.5537,-407.0934 376.9615,-411.5382"/>
</g>
<!-- Node0x7fe8f7849120 -->
<g id="node5" class="node">
<title>Node0x7fe8f7849120</title>
<polygon fill="none" stroke="#000000" points="578.1968,-365.5 578.1968,-401.5 658.7554,-401.5 658.7554,-365.5 578.1968,-365.5"/>
<text text-anchor="middle" x="618.4761" y="-379.3" font-family="Times,serif" font-size="14.00" fill="#000000">ReturnStmt</text>
</g>
<!-- Node0x7fe8f7849138&#45;&gt;Node0x7fe8f7849120 -->
<g id="edge4" class="edge">
<title>Node0x7fe8f7849138&#45;&gt;Node0x7fe8f7849120</title>
<path fill="none" stroke="#000000" d="M387.9966,-440.3761C390.8607,-439.5579 393.7012,-438.7608 396.4761,-438 455.0093,-421.9517 522.8354,-405.6277 567.9618,-395.0847"/>
<polygon fill="#000000" stroke="#000000" points="568.8516,-398.4713 577.7972,-392.7945 567.264,-391.6537 568.8516,-398.4713"/>
</g>
<!-- Node0x7fe8f7848cb8 -->
<g id="node6" class="node">
<title>Node0x7fe8f7848cb8</title>
<polygon fill="none" stroke="#000000" points="0,-292.5 0,-328.5 92.9521,-328.5 92.9521,-292.5 0,-292.5"/>
<text text-anchor="middle" x="46.4761" y="-306.3" font-family="Times,serif" font-size="14.00" fill="#000000">IntegerLiteral</text>
</g>
<!-- Node0x7fe8f7848cd8&#45;&gt;Node0x7fe8f7848cb8 -->
<g id="edge5" class="edge">
<title>Node0x7fe8f7848cd8&#45;&gt;Node0x7fe8f7848cb8</title>
<path fill="none" stroke="#000000" d="M99.9255,-365.4551C91.2211,-356.5054 80.5629,-345.547 71.0605,-335.7769"/>
<polygon fill="#000000" stroke="#000000" points="73.552,-333.3187 64.0708,-328.5904 68.534,-338.1992 73.552,-333.3187"/>
</g>
<!-- Node0x7fe8f7848d68 -->
<g id="node7" class="node">
<title>Node0x7fe8f7848d68</title>
<polygon fill="none" stroke="#000000" points="111,-292.5 111,-328.5 203.9521,-328.5 203.9521,-292.5 111,-292.5"/>
<text text-anchor="middle" x="157.4761" y="-306.3" font-family="Times,serif" font-size="14.00" fill="#000000">IntegerLiteral</text>
</g>
<!-- Node0x7fe8f7848d88&#45;&gt;Node0x7fe8f7848d68 -->
<g id="edge6" class="edge">
<title>Node0x7fe8f7848d88&#45;&gt;Node0x7fe8f7848d68</title>
<path fill="none" stroke="#000000" d="M201.8918,-365.4551C194.8713,-356.7686 186.3213,-346.1898 178.6045,-336.642"/>
<polygon fill="#000000" stroke="#000000" points="181.105,-334.1677 172.097,-328.5904 175.6608,-338.5678 181.105,-334.1677"/>
</g>
<!-- Node0x7fe8f7848de8 -->
<g id="node8" class="node">
<title>Node0x7fe8f7848de8</title>
<polygon fill="none" stroke="#000000" points="221.5483,-292.5 221.5483,-328.5 325.4038,-328.5 325.4038,-292.5 221.5483,-292.5"/>
<text text-anchor="middle" x="273.4761" y="-306.3" font-family="Times,serif" font-size="14.00" fill="#000000">BinaryOperator</text>
</g>
<!-- Node0x7fe8f78490c8&#45;&gt;Node0x7fe8f7848de8 -->
<g id="edge7" class="edge">
<title>Node0x7fe8f78490c8&#45;&gt;Node0x7fe8f7848de8</title>
<path fill="none" stroke="#000000" d="M365.3188,-365.4551C349.3354,-355.8912 329.5182,-344.0334 312.3879,-333.7833"/>
<polygon fill="#000000" stroke="#000000" points="314.0876,-330.7216 303.7093,-328.5904 310.4933,-336.7284 314.0876,-330.7216"/>
</g>
<!-- Node0x7fe8f7848e70 -->
<g id="node9" class="node">
<title>Node0x7fe8f7848e70</title>
<polygon fill="none" stroke="#000000" points="343.5483,-292.5 343.5483,-328.5 447.4038,-328.5 447.4038,-292.5 343.5483,-292.5"/>
<text text-anchor="middle" x="395.4761" y="-306.3" font-family="Times,serif" font-size="14.00" fill="#000000">BinaryOperator</text>
</g>
<!-- Node0x7fe8f78490c8&#45;&gt;Node0x7fe8f7848e70 -->
<g id="edge8" class="edge">
<title>Node0x7fe8f78490c8&#45;&gt;Node0x7fe8f7848e70</title>
<path fill="none" stroke="#000000" d="M395.4761,-365.4551C395.4761,-357.3828 395.4761,-347.6764 395.4761,-338.6817"/>
<polygon fill="#000000" stroke="#000000" points="398.9762,-338.5903 395.4761,-328.5904 391.9762,-338.5904 398.9762,-338.5903"/>
</g>
<!-- Node0x7fe8f7848ec0 -->
<g id="node10" class="node">
<title>Node0x7fe8f7848ec0</title>
<polygon fill="none" stroke="#000000" points="465.1069,-292.5 465.1069,-328.5 565.8452,-328.5 565.8452,-292.5 465.1069,-292.5"/>
<text text-anchor="middle" x="515.4761" y="-306.3" font-family="Times,serif" font-size="14.00" fill="#000000">UnaryOperator</text>
</g>
<!-- Node0x7fe8f78490c8&#45;&gt;Node0x7fe8f7848ec0 -->
<g id="edge9" class="edge">
<title>Node0x7fe8f78490c8&#45;&gt;Node0x7fe8f7848ec0</title>
<path fill="none" stroke="#000000" d="M425.139,-365.4551C440.7161,-355.979 459.9953,-344.2508 476.7378,-334.0658"/>
<polygon fill="#000000" stroke="#000000" points="479.0142,-336.7778 485.7385,-328.5904 475.3761,-330.7974 479.0142,-336.7778"/>
</g>
<!-- Node0x7fe8f78490a0 -->
<g id="node11" class="node">
<title>Node0x7fe8f78490a0</title>
<polygon fill="none" stroke="#000000" points="584.1348,-292.5 584.1348,-328.5 688.8174,-328.5 688.8174,-292.5 584.1348,-292.5"/>
<text text-anchor="middle" x="636.4761" y="-306.3" font-family="Times,serif" font-size="14.00" fill="#000000">CompoundStmt</text>
</g>
<!-- Node0x7fe8f78490c8&#45;&gt;Node0x7fe8f78490a0 -->
<g id="edge10" class="edge">
<title>Node0x7fe8f78490c8&#45;&gt;Node0x7fe8f78490a0</title>
<path fill="none" stroke="#000000" d="M426.4892,-374.106C463.6383,-362.8533 526.7832,-343.7265 574.1498,-329.3789"/>
<polygon fill="#000000" stroke="#000000" points="575.4468,-332.6432 584.0027,-326.3944 573.4175,-325.9437 575.4468,-332.6432"/>
</g>
<!-- Node0x7fe8f7849100 -->
<g id="node32" class="node">
<title>Node0x7fe8f7849100</title>
<polygon fill="none" stroke="#000000" points="707,-292.5 707,-328.5 799.9521,-328.5 799.9521,-292.5 707,-292.5"/>
<text text-anchor="middle" x="753.4761" y="-306.3" font-family="Times,serif" font-size="14.00" fill="#000000">IntegerLiteral</text>
</g>
<!-- Node0x7fe8f7849120&#45;&gt;Node0x7fe8f7849100 -->
<g id="edge30" class="edge">
<title>Node0x7fe8f7849120&#45;&gt;Node0x7fe8f7849100</title>
<path fill="none" stroke="#000000" d="M651.8469,-365.4551C669.7768,-355.7596 692.0666,-343.7066 711.1988,-333.361"/>
<polygon fill="#000000" stroke="#000000" points="712.8898,-336.4257 720.0213,-328.5904 709.5602,-330.2682 712.8898,-336.4257"/>
</g>
<!-- Node0x7fe8f7848da0 -->
<g id="node12" class="node">
<title>Node0x7fe8f7848da0</title>
<polygon fill="none" stroke="#000000" points="16.5483,-219.5 16.5483,-255.5 106.4038,-255.5 106.4038,-219.5 16.5483,-219.5"/>
<text text-anchor="middle" x="61.4761" y="-233.3" font-family="Times,serif" font-size="14.00" fill="#000000">DeclRefExpr</text>
</g>
<!-- Node0x7fe8f7848de8&#45;&gt;Node0x7fe8f7848da0 -->
<g id="edge11" class="edge">
<title>Node0x7fe8f7848de8&#45;&gt;Node0x7fe8f7848da0</title>
<path fill="none" stroke="#000000" d="M221.3435,-292.5487C189.456,-281.5686 148.7106,-267.5383 116.3357,-256.3904"/>
<polygon fill="#000000" stroke="#000000" points="117.1709,-252.9763 106.5762,-253.0298 114.8918,-259.5949 117.1709,-252.9763"/>
</g>
<!-- Node0x7fe8f7848dc8 -->
<g id="node13" class="node">
<title>Node0x7fe8f7848dc8</title>
<polygon fill="none" stroke="#000000" points="124,-219.5 124,-255.5 216.9521,-255.5 216.9521,-219.5 124,-219.5"/>
<text text-anchor="middle" x="170.4761" y="-233.3" font-family="Times,serif" font-size="14.00" fill="#000000">IntegerLiteral</text>
</g>
<!-- Node0x7fe8f7848de8&#45;&gt;Node0x7fe8f7848dc8 -->
<g id="edge12" class="edge">
<title>Node0x7fe8f7848de8&#45;&gt;Node0x7fe8f7848dc8</title>
<path fill="none" stroke="#000000" d="M248.0154,-292.4551C234.8926,-283.1545 218.7088,-271.6844 204.527,-261.6332"/>
<polygon fill="#000000" stroke="#000000" points="206.1834,-258.5172 196.0008,-255.5904 202.1357,-264.2283 206.1834,-258.5172"/>
</g>
<!-- Node0x7fe8f7848e58 -->
<g id="node15" class="node">
<title>Node0x7fe8f7848e58</title>
<polygon fill="none" stroke="#000000" points="235.2622,-219.5 235.2622,-255.5 347.6899,-255.5 347.6899,-219.5 235.2622,-219.5"/>
<text text-anchor="middle" x="291.4761" y="-233.3" font-family="Times,serif" font-size="14.00" fill="#000000">ImplicitCastExpr</text>
</g>
<!-- Node0x7fe8f7848e70&#45;&gt;Node0x7fe8f7848e58 -->
<g id="edge13" class="edge">
<title>Node0x7fe8f7848e70&#45;&gt;Node0x7fe8f7848e58</title>
<path fill="none" stroke="#000000" d="M369.7682,-292.4551C356.393,-283.0667 339.8685,-271.4678 325.4529,-261.3491"/>
<polygon fill="#000000" stroke="#000000" points="327.4444,-258.4709 317.2486,-255.5904 323.4227,-264.2003 327.4444,-258.4709"/>
</g>
<!-- Node0x7fe8f7848e38 -->
<g id="node16" class="node">
<title>Node0x7fe8f7848e38</title>
<polygon fill="none" stroke="#000000" points="366,-219.5 366,-255.5 458.9521,-255.5 458.9521,-219.5 366,-219.5"/>
<text text-anchor="middle" x="412.4761" y="-233.3" font-family="Times,serif" font-size="14.00" fill="#000000">IntegerLiteral</text>
</g>
<!-- Node0x7fe8f7848e70&#45;&gt;Node0x7fe8f7848e38 -->
<g id="edge14" class="edge">
<title>Node0x7fe8f7848e70&#45;&gt;Node0x7fe8f7848e38</title>
<path fill="none" stroke="#000000" d="M399.6783,-292.4551C401.5786,-284.2951 403.8677,-274.4652 405.9814,-265.3887"/>
<polygon fill="#000000" stroke="#000000" points="409.4039,-266.1236 408.2633,-255.5904 402.5863,-264.5359 409.4039,-266.1236"/>
</g>
<!-- Node0x7fe8f7848e98 -->
<g id="node18" class="node">
<title>Node0x7fe8f7848e98</title>
<polygon fill="none" stroke="#000000" points="476.5483,-219.5 476.5483,-255.5 566.4038,-255.5 566.4038,-219.5 476.5483,-219.5"/>
<text text-anchor="middle" x="521.4761" y="-233.3" font-family="Times,serif" font-size="14.00" fill="#000000">DeclRefExpr</text>
</g>
<!-- Node0x7fe8f7848ec0&#45;&gt;Node0x7fe8f7848e98 -->
<g id="edge16" class="edge">
<title>Node0x7fe8f7848ec0&#45;&gt;Node0x7fe8f7848e98</title>
<path fill="none" stroke="#000000" d="M516.9592,-292.4551C517.6227,-284.3828 518.4205,-274.6764 519.1598,-265.6817"/>
<polygon fill="#000000" stroke="#000000" points="522.6582,-265.8435 519.9892,-255.5904 515.6817,-265.27 522.6582,-265.8435"/>
</g>
<!-- Node0x7fe8f7848f90 -->
<g id="node19" class="node">
<title>Node0x7fe8f7848f90</title>
<polygon fill="none" stroke="#000000" points="584.5483,-219.5 584.5483,-255.5 688.4038,-255.5 688.4038,-219.5 584.5483,-219.5"/>
<text text-anchor="middle" x="636.4761" y="-233.3" font-family="Times,serif" font-size="14.00" fill="#000000">BinaryOperator</text>
</g>
<!-- Node0x7fe8f78490a0&#45;&gt;Node0x7fe8f7848f90 -->
<g id="edge17" class="edge">
<title>Node0x7fe8f78490a0&#45;&gt;Node0x7fe8f7848f90</title>
<path fill="none" stroke="#000000" d="M636.4761,-292.4551C636.4761,-284.3828 636.4761,-274.6764 636.4761,-265.6817"/>
<polygon fill="#000000" stroke="#000000" points="639.9762,-265.5903 636.4761,-255.5904 632.9762,-265.5904 639.9762,-265.5903"/>
</g>
<!-- Node0x7fe8f7849068 -->
<g id="node20" class="node">
<title>Node0x7fe8f7849068</title>
<polygon fill="none" stroke="#000000" points="781.4761,-219.5 781.4761,-255.5 835.4761,-255.5 835.4761,-219.5 781.4761,-219.5"/>
<text text-anchor="middle" x="808.3657" y="-233.3" font-family="Times,serif" font-size="14.00" fill="#000000">IfStmt</text>
</g>
<!-- Node0x7fe8f78490a0&#45;&gt;Node0x7fe8f7849068 -->
<g id="edge18" class="edge">
<title>Node0x7fe8f78490a0&#45;&gt;Node0x7fe8f7849068</title>
<path fill="none" stroke="#000000" d="M678.9929,-292.4551C707.5221,-280.3467 744.7151,-264.5614 771.9157,-253.0169"/>
<polygon fill="#000000" stroke="#000000" points="773.6125,-256.099 781.4503,-248.9702 770.8777,-249.6553 773.6125,-256.099"/>
</g>
<!-- Node0x0 -->
<g id="node14" class="node">
<title>Node0x0</title>
<polygon fill="none" stroke="#000000" points="405.9185,-438.5 405.9185,-474.5 475.0337,-474.5 475.0337,-438.5 405.9185,-438.5"/>
<text text-anchor="middle" x="440.4761" y="-452.3" font-family="Times,serif" font-size="14.00" fill="#000000">&lt;NULL&gt;</text>
</g>
<!-- Node0x7fe8f7848e10 -->
<g id="node17" class="node">
<title>Node0x7fe8f7848e10</title>
<polygon fill="none" stroke="#000000" points="246.5483,-146.5 246.5483,-182.5 336.4038,-182.5 336.4038,-146.5 246.5483,-146.5"/>
<text text-anchor="middle" x="291.4761" y="-160.3" font-family="Times,serif" font-size="14.00" fill="#000000">DeclRefExpr</text>
</g>
<!-- Node0x7fe8f7848e58&#45;&gt;Node0x7fe8f7848e10 -->
<g id="edge15" class="edge">
<title>Node0x7fe8f7848e58&#45;&gt;Node0x7fe8f7848e10</title>
<path fill="none" stroke="#000000" d="M291.4761,-219.4551C291.4761,-211.3828 291.4761,-201.6764 291.4761,-192.6817"/>
<polygon fill="#000000" stroke="#000000" points="294.9762,-192.5903 291.4761,-182.5904 287.9762,-192.5904 294.9762,-192.5903"/>
</g>
<!-- Node0x7fe8f7848ee0 -->
<g id="node21" class="node">
<title>Node0x7fe8f7848ee0</title>
<polygon fill="none" stroke="#000000" points="476.5483,-146.5 476.5483,-182.5 566.4038,-182.5 566.4038,-146.5 476.5483,-146.5"/>
<text text-anchor="middle" x="521.4761" y="-160.3" font-family="Times,serif" font-size="14.00" fill="#000000">DeclRefExpr</text>
</g>
<!-- Node0x7fe8f7848f90&#45;&gt;Node0x7fe8f7848ee0 -->
<g id="edge19" class="edge">
<title>Node0x7fe8f7848f90&#45;&gt;Node0x7fe8f7848ee0</title>
<path fill="none" stroke="#000000" d="M608.0491,-219.4551C593.121,-209.979 574.6451,-198.2508 558.6003,-188.0658"/>
<polygon fill="#000000" stroke="#000000" points="560.293,-184.9947 549.9746,-182.5904 556.5415,-190.9046 560.293,-184.9947"/>
</g>
<!-- Node0x7fe8f7848f68 -->
<g id="node22" class="node">
<title>Node0x7fe8f7848f68</title>
<polygon fill="none" stroke="#000000" points="584.5483,-146.5 584.5483,-182.5 688.4038,-182.5 688.4038,-146.5 584.5483,-146.5"/>
<text text-anchor="middle" x="636.4761" y="-160.3" font-family="Times,serif" font-size="14.00" fill="#000000">BinaryOperator</text>
</g>
<!-- Node0x7fe8f7848f90&#45;&gt;Node0x7fe8f7848f68 -->
<g id="edge20" class="edge">
<title>Node0x7fe8f7848f90&#45;&gt;Node0x7fe8f7848f68</title>
<path fill="none" stroke="#000000" d="M636.4761,-219.4551C636.4761,-211.3828 636.4761,-201.6764 636.4761,-192.6817"/>
<polygon fill="#000000" stroke="#000000" points="639.9762,-192.5903 636.4761,-182.5904 632.9762,-192.5904 639.9762,-192.5903"/>
</g>
<!-- Node0x7fe8f7849018 -->
<g id="node26" class="node">
<title>Node0x7fe8f7849018</title>
<polygon fill="none" stroke="#000000" points="756.5483,-146.5 756.5483,-182.5 860.4038,-182.5 860.4038,-146.5 756.5483,-146.5"/>
<text text-anchor="middle" x="808.4761" y="-160.3" font-family="Times,serif" font-size="14.00" fill="#000000">BinaryOperator</text>
</g>
<!-- Node0x7fe8f7849068&#45;&gt;Node0x7fe8f7849018 -->
<g id="edge24" class="edge">
<title>Node0x7fe8f7849068&#45;&gt;Node0x7fe8f7849018</title>
<path fill="none" stroke="#000000" d="M808.4761,-219.4551C808.4761,-211.3828 808.4761,-201.6764 808.4761,-192.6817"/>
<polygon fill="#000000" stroke="#000000" points="811.9762,-192.5903 808.4761,-182.5904 804.9762,-192.5904 811.9762,-192.5903"/>
</g>
<!-- Node0x7fe8f7849048 -->
<g id="node27" class="node">
<title>Node0x7fe8f7849048</title>
<polygon fill="none" stroke="#000000" points="903.1348,-146.5 903.1348,-182.5 1007.8174,-182.5 1007.8174,-146.5 903.1348,-146.5"/>
<text text-anchor="middle" x="955.4761" y="-160.3" font-family="Times,serif" font-size="14.00" fill="#000000">CompoundStmt</text>
</g>
<!-- Node0x7fe8f7849068&#45;&gt;Node0x7fe8f7849048 -->
<g id="edge25" class="edge">
<title>Node0x7fe8f7849068&#45;&gt;Node0x7fe8f7849048</title>
<path fill="none" stroke="#000000" d="M835.7811,-223.9403C856.6168,-213.5934 885.7813,-199.1103 910.1053,-187.031"/>
<polygon fill="#000000" stroke="#000000" points="911.7636,-190.1154 919.1633,-182.5329 908.6501,-183.8459 911.7636,-190.1154"/>
</g>
<!-- Node0x7fe8f7848f50 -->
<g id="node23" class="node">
<title>Node0x7fe8f7848f50</title>
<polygon fill="none" stroke="#000000" points="459.2622,-73.5 459.2622,-109.5 571.6899,-109.5 571.6899,-73.5 459.2622,-73.5"/>
<text text-anchor="middle" x="515.4761" y="-87.3" font-family="Times,serif" font-size="14.00" fill="#000000">ImplicitCastExpr</text>
</g>
<!-- Node0x7fe8f7848f68&#45;&gt;Node0x7fe8f7848f50 -->
<g id="edge21" class="edge">
<title>Node0x7fe8f7848f68&#45;&gt;Node0x7fe8f7848f50</title>
<path fill="none" stroke="#000000" d="M606.566,-146.4551C590.7136,-136.8912 571.0588,-125.0334 554.0689,-114.7833"/>
<polygon fill="#000000" stroke="#000000" points="555.8319,-111.7593 545.4615,-109.5904 552.2159,-117.753 555.8319,-111.7593"/>
</g>
<!-- Node0x7fe8f7848f30 -->
<g id="node24" class="node">
<title>Node0x7fe8f7848f30</title>
<polygon fill="none" stroke="#000000" points="590,-73.5 590,-109.5 682.9521,-109.5 682.9521,-73.5 590,-73.5"/>
<text text-anchor="middle" x="636.4761" y="-87.3" font-family="Times,serif" font-size="14.00" fill="#000000">IntegerLiteral</text>
</g>
<!-- Node0x7fe8f7848f68&#45;&gt;Node0x7fe8f7848f30 -->
<g id="edge22" class="edge">
<title>Node0x7fe8f7848f68&#45;&gt;Node0x7fe8f7848f30</title>
<path fill="none" stroke="#000000" d="M636.4761,-146.4551C636.4761,-138.3828 636.4761,-128.6764 636.4761,-119.6817"/>
<polygon fill="#000000" stroke="#000000" points="639.9762,-119.5903 636.4761,-109.5904 632.9762,-119.5904 639.9762,-119.5903"/>
</g>
<!-- Node0x7fe8f7848f08 -->
<g id="node25" class="node">
<title>Node0x7fe8f7848f08</title>
<polygon fill="none" stroke="#000000" points="470.5483,-.5 470.5483,-36.5 560.4038,-36.5 560.4038,-.5 470.5483,-.5"/>
<text text-anchor="middle" x="515.4761" y="-14.3" font-family="Times,serif" font-size="14.00" fill="#000000">DeclRefExpr</text>
</g>
<!-- Node0x7fe8f7848f50&#45;&gt;Node0x7fe8f7848f08 -->
<g id="edge23" class="edge">
<title>Node0x7fe8f7848f50&#45;&gt;Node0x7fe8f7848f08</title>
<path fill="none" stroke="#000000" d="M515.4761,-73.4551C515.4761,-65.3828 515.4761,-55.6764 515.4761,-46.6817"/>
<polygon fill="#000000" stroke="#000000" points="518.9762,-46.5903 515.4761,-36.5904 511.9762,-46.5904 518.9762,-46.5903"/>
</g>
<!-- Node0x7fe8f7849000 -->
<g id="node28" class="node">
<title>Node0x7fe8f7849000</title>
<polygon fill="none" stroke="#000000" points="701.2622,-73.5 701.2622,-109.5 813.6899,-109.5 813.6899,-73.5 701.2622,-73.5"/>
<text text-anchor="middle" x="757.4761" y="-87.3" font-family="Times,serif" font-size="14.00" fill="#000000">ImplicitCastExpr</text>
</g>
<!-- Node0x7fe8f7849018&#45;&gt;Node0x7fe8f7849000 -->
<g id="edge26" class="edge">
<title>Node0x7fe8f7849018&#45;&gt;Node0x7fe8f7849000</title>
<path fill="none" stroke="#000000" d="M795.8693,-146.4551C789.862,-137.8564 782.5592,-127.4034 775.942,-117.9316"/>
<polygon fill="#000000" stroke="#000000" points="778.7108,-115.7835 770.1145,-109.5904 772.9725,-119.7925 778.7108,-115.7835"/>
</g>
<!-- Node0x7fe8f7848fe0 -->
<g id="node29" class="node">
<title>Node0x7fe8f7848fe0</title>
<polygon fill="none" stroke="#000000" points="832,-73.5 832,-109.5 924.9521,-109.5 924.9521,-73.5 832,-73.5"/>
<text text-anchor="middle" x="878.4761" y="-87.3" font-family="Times,serif" font-size="14.00" fill="#000000">IntegerLiteral</text>
</g>
<!-- Node0x7fe8f7849018&#45;&gt;Node0x7fe8f7848fe0 -->
<g id="edge27" class="edge">
<title>Node0x7fe8f7849018&#45;&gt;Node0x7fe8f7848fe0</title>
<path fill="none" stroke="#000000" d="M825.7794,-146.4551C834.2772,-137.5932 844.6635,-126.7616 853.962,-117.0646"/>
<polygon fill="#000000" stroke="#000000" points="856.7342,-119.2306 861.1292,-109.5904 851.6817,-114.3858 856.7342,-119.2306"/>
</g>
<!-- Node0x7fe8f7849040 -->
<g id="node31" class="node">
<title>Node0x7fe8f7849040</title>
<polygon fill="none" stroke="#000000" points="942.5347,-73.5 942.5347,-109.5 1018.4175,-109.5 1018.4175,-73.5 942.5347,-73.5"/>
<text text-anchor="middle" x="980.4761" y="-87.3" font-family="Times,serif" font-size="14.00" fill="#000000">BreakStmt</text>
</g>
<!-- Node0x7fe8f7849048&#45;&gt;Node0x7fe8f7849040 -->
<g id="edge29" class="edge">
<title>Node0x7fe8f7849048&#45;&gt;Node0x7fe8f7849040</title>
<path fill="none" stroke="#000000" d="M961.6559,-146.4551C964.4804,-138.2074 967.8892,-128.2536 971.0253,-119.0962"/>
<polygon fill="#000000" stroke="#000000" points="974.352,-120.185 974.2807,-109.5904 967.7295,-117.917 974.352,-120.185"/>
</g>
<!-- Node0x7fe8f7848fb8 -->
<g id="node30" class="node">
<title>Node0x7fe8f7848fb8</title>
<polygon fill="none" stroke="#000000" points="712.5483,-.5 712.5483,-36.5 802.4038,-36.5 802.4038,-.5 712.5483,-.5"/>
<text text-anchor="middle" x="757.4761" y="-14.3" font-family="Times,serif" font-size="14.00" fill="#000000">DeclRefExpr</text>
</g>
<!-- Node0x7fe8f7849000&#45;&gt;Node0x7fe8f7848fb8 -->
<g id="edge28" class="edge">
<title>Node0x7fe8f7849000&#45;&gt;Node0x7fe8f7848fb8</title>
<path fill="none" stroke="#000000" d="M757.4761,-73.4551C757.4761,-65.3828 757.4761,-55.6764 757.4761,-46.6817"/>
<polygon fill="#000000" stroke="#000000" points="760.9762,-46.5903 757.4761,-36.5904 753.9762,-46.5904 760.9762,-46.5903"/>
</g>
</g>
</svg>
