<?xml version="1.0" encoding="UTF-8" standalone="no"?>
<!DOCTYPE svg PUBLIC "-//W3C//DTD SVG 1.1//EN"
 "http://www.w3.org/Graphics/SVG/1.1/DTD/svg11.dtd">
<!-- Generated by graphviz version 2.40.1 (20161225.0304)
 -->
<!-- Title: unnamed Pages: 1 -->
<svg width="488pt" height="791pt"
 viewBox="0.00 0.00 488.35 791.00" xmlns="http://www.w3.org/2000/svg" xmlns:xlink="http://www.w3.org/1999/xlink">
<g id="graph0" class="graph" transform="scale(1 1) rotate(0) translate(4 787)">
<title>unnamed</title>
<polygon fill="#ffffff" stroke="transparent" points="-4,4 -4,-787 484.3457,-787 484.3457,4 -4,4"/>
<!-- Node0x7fbeea07de50 -->
<g id="node1" class="node">
<title>Node0x7fbeea07de50</title>
<polygon fill="none" stroke="#000000" points="152.4917,-.5 152.4917,-36.5 238.854,-36.5 238.854,-.5 152.4917,-.5"/>
<text text-anchor="start" x="160.4917" y="-14.3" font-family="Times,serif" font-size="14.00" fill="#000000">[B0 (EXIT)]</text>
</g>
<!-- Node0x7fbeea07df28 -->
<g id="node2" class="node">
<title>Node0x7fbeea07df28</title>
<polygon fill="none" stroke="#000000" points="140.2383,-73.5 140.2383,-123.5 251.1074,-123.5 251.1074,-73.5 140.2383,-73.5"/>
<text text-anchor="start" x="148.2383" y="-108.3" font-family="Times,serif" font-size="14.00" fill="#000000">[B1]</text>
<text text-anchor="start" x="148.2383" y="-94.3" font-family="Times,serif" font-size="14.00" fill="#000000"> 1: 0</text>
<text text-anchor="start" x="148.2383" y="-80.3" font-family="Times,serif" font-size="14.00" fill="#000000"> 2: return [B1.1];</text>
</g>
<!-- Node0x7fbeea07df28&#45;&gt;Node0x7fbeea07de50 -->
<g id="edge1" class="edge">
<title>Node0x7fbeea07df28&#45;&gt;Node0x7fbeea07de50</title>
<path fill="none" stroke="#000000" d="M195.6729,-73.1875C195.6729,-64.726 195.6729,-55.2463 195.6729,-46.5864"/>
<polygon fill="#000000" stroke="#000000" points="199.173,-46.5533 195.6729,-36.5533 192.173,-46.5533 199.173,-46.5533"/>
</g>
<!-- Node0x7fbeea07e000 -->
<g id="node3" class="node">
<title>Node0x7fbeea07e000</title>
<polygon fill="none" stroke="#000000" points="165.7515,-160.5 165.7515,-210.5 251.5942,-210.5 251.5942,-160.5 165.7515,-160.5"/>
<text text-anchor="start" x="173.7515" y="-195.3" font-family="Times,serif" font-size="14.00" fill="#000000">[B2]</text>
<text text-anchor="start" x="173.7515" y="-181.3" font-family="Times,serif" font-size="14.00" fill="#000000"> 1: i</text>
<text text-anchor="start" x="173.7515" y="-167.3" font-family="Times,serif" font-size="14.00" fill="#000000"> 2: [B2.1]++</text>
</g>
<!-- Node0x7fbeea07e428 -->
<g id="node4" class="node">
<title>Node0x7fbeea07e428</title>
<polygon fill="none" stroke="#000000" points="0,-460.5 0,-552.5 301.3457,-552.5 301.3457,-460.5 0,-460.5"/>
<text text-anchor="start" x="8" y="-537.3" font-family="Times,serif" font-size="14.00" fill="#000000">[B5]</text>
<text text-anchor="start" x="8" y="-523.3" font-family="Times,serif" font-size="14.00" fill="#000000"> 1: i</text>
<text text-anchor="start" x="8" y="-509.3" font-family="Times,serif" font-size="14.00" fill="#000000"> 2: [B5.1] (ImplicitCastExpr, LValueToRValue, int)</text>
<text text-anchor="start" x="8" y="-495.3" font-family="Times,serif" font-size="14.00" fill="#000000"> 3: 10</text>
<text text-anchor="start" x="8" y="-481.3" font-family="Times,serif" font-size="14.00" fill="#000000"> 4: [B5.2] &lt; [B5.3]</text>
<text text-anchor="start" x="8" y="-467.3" font-family="Times,serif" font-size="14.00" fill="#000000"> T: for (...; [B5.4]; ...)</text>
</g>
<!-- Node0x7fbeea07e000&#45;&gt;Node0x7fbeea07e428 -->
<g id="edge2" class="edge">
<title>Node0x7fbeea07e000&#45;&gt;Node0x7fbeea07e428</title>
<path fill="none" stroke="#000000" d="M188.7303,-210.6954C181.4265,-221.3037 173.917,-234.155 169.6729,-247 147.4386,-314.2927 145.3207,-396.5684 147.0134,-450.1887"/>
<polygon fill="#000000" stroke="#000000" points="143.5159,-450.3238 147.3838,-460.1873 150.5111,-450.0646 143.5159,-450.3238"/>
</g>
<!-- Node0x7fbeea07e428&#45;&gt;Node0x7fbeea07df28 -->
<g id="edge7" class="edge">
<title>Node0x7fbeea07e428&#45;&gt;Node0x7fbeea07df28</title>
<path fill="none" stroke="#000000" d="M141.8858,-460.3595C130.9839,-392.154 118.1777,-261.5466 156.6729,-160 160.3029,-150.4242 165.5403,-140.7511 171.0043,-132.001"/>
<polygon fill="#000000" stroke="#000000" points="173.9556,-133.8829 176.4928,-123.5963 168.0946,-130.0555 173.9556,-133.8829"/>
</g>
<!-- Node0x7fbeea07e1b0 -->
<g id="node6" class="node">
<title>Node0x7fbeea07e1b0</title>
<polygon fill="none" stroke="#000000" points="179,-247.5 179,-423.5 480.3457,-423.5 480.3457,-247.5 179,-247.5"/>
<text text-anchor="start" x="187" y="-408.3" font-family="Times,serif" font-size="14.00" fill="#000000">[B4]</text>
<text text-anchor="start" x="187" y="-394.3" font-family="Times,serif" font-size="14.00" fill="#000000"> 1: i</text>
<text text-anchor="start" x="187" y="-380.3" font-family="Times,serif" font-size="14.00" fill="#000000"> 2: [B4.1] (ImplicitCastExpr, LValueToRValue, int)</text>
<text text-anchor="start" x="187" y="-366.3" font-family="Times,serif" font-size="14.00" fill="#000000"> 3: 1</text>
<text text-anchor="start" x="187" y="-352.3" font-family="Times,serif" font-size="14.00" fill="#000000"> 4: [B4.2] + [B4.3]</text>
<text text-anchor="start" x="187" y="-338.3" font-family="Times,serif" font-size="14.00" fill="#000000"> 5: j</text>
<text text-anchor="start" x="187" y="-324.3" font-family="Times,serif" font-size="14.00" fill="#000000"> 6: [B4.5] = [B4.4]</text>
<text text-anchor="start" x="187" y="-310.3" font-family="Times,serif" font-size="14.00" fill="#000000"> 7: j</text>
<text text-anchor="start" x="187" y="-296.3" font-family="Times,serif" font-size="14.00" fill="#000000"> 8: [B4.7] (ImplicitCastExpr, LValueToRValue, int)</text>
<text text-anchor="start" x="187" y="-282.3" font-family="Times,serif" font-size="14.00" fill="#000000"> 9: 6</text>
<text text-anchor="start" x="187" y="-268.3" font-family="Times,serif" font-size="14.00" fill="#000000"> 10: [B4.8] &gt; [B4.9]</text>
<text text-anchor="start" x="187" y="-254.3" font-family="Times,serif" font-size="14.00" fill="#000000"> T: if [B4.10]</text>
</g>
<!-- Node0x7fbeea07e428&#45;&gt;Node0x7fbeea07e1b0 -->
<g id="edge6" class="edge">
<title>Node0x7fbeea07e428&#45;&gt;Node0x7fbeea07e1b0</title>
<path fill="none" stroke="#000000" d="M199.1128,-460.2249C208.7872,-450.983 219.2787,-440.9603 229.967,-430.7497"/>
<polygon fill="#000000" stroke="#000000" points="232.5772,-433.0966 237.3904,-423.6581 227.7419,-428.035 232.5772,-433.0966"/>
</g>
<!-- Node0x7fbeea07e0d8 -->
<g id="node5" class="node">
<title>Node0x7fbeea07e0d8</title>
<polygon fill="none" stroke="#000000" points="281.9341,-167.5 281.9341,-203.5 351.4116,-203.5 351.4116,-167.5 281.9341,-167.5"/>
<text text-anchor="start" x="289.9341" y="-188.3" font-family="Times,serif" font-size="14.00" fill="#000000">[B3]</text>
<text text-anchor="start" x="289.9341" y="-174.3" font-family="Times,serif" font-size="14.00" fill="#000000"> T: break;</text>
</g>
<!-- Node0x7fbeea07e0d8&#45;&gt;Node0x7fbeea07df28 -->
<g id="edge3" class="edge">
<title>Node0x7fbeea07e0d8&#45;&gt;Node0x7fbeea07df28</title>
<path fill="none" stroke="#000000" d="M291.6016,-167.4735C276.4917,-156.6094 256.8297,-142.4722 239.2432,-129.8275"/>
<polygon fill="#000000" stroke="#000000" points="240.9681,-126.7568 230.8057,-123.7608 236.8816,-132.4403 240.9681,-126.7568"/>
</g>
<!-- Node0x7fbeea07e1b0&#45;&gt;Node0x7fbeea07e000 -->
<g id="edge5" class="edge">
<title>Node0x7fbeea07e1b0&#45;&gt;Node0x7fbeea07e000</title>
<path fill="none" stroke="#000000" d="M258.5868,-247.3768C250.4002,-237.2282 242.4806,-227.4105 235.4529,-218.6984"/>
<polygon fill="#000000" stroke="#000000" points="238.0114,-216.2955 229.0087,-210.7097 232.5631,-220.6905 238.0114,-216.2955"/>
</g>
<!-- Node0x7fbeea07e1b0&#45;&gt;Node0x7fbeea07e0d8 -->
<g id="edge4" class="edge">
<title>Node0x7fbeea07e1b0&#45;&gt;Node0x7fbeea07e0d8</title>
<path fill="none" stroke="#000000" d="M322.0355,-247.3768C320.9915,-235.33 319.9878,-223.7494 319.1369,-213.931"/>
<polygon fill="#000000" stroke="#000000" points="322.5975,-213.3239 318.247,-203.6635 315.6236,-213.9284 322.5975,-213.3239"/>
</g>
<!-- Node0x7fbeea07e540 -->
<g id="node7" class="node">
<title>Node0x7fbeea07e540</title>
<polygon fill="none" stroke="#000000" points="90.1182,-589.5 90.1182,-709.5 211.2275,-709.5 211.2275,-589.5 90.1182,-589.5"/>
<text text-anchor="start" x="98.1182" y="-694.3" font-family="Times,serif" font-size="14.00" fill="#000000">[B6]</text>
<text text-anchor="start" x="98.1182" y="-680.3" font-family="Times,serif" font-size="14.00" fill="#000000"> 1: 0</text>
<text text-anchor="start" x="98.1182" y="-666.3" font-family="Times,serif" font-size="14.00" fill="#000000"> 2: int i = 0;</text>
<text text-anchor="start" x="98.1182" y="-652.3" font-family="Times,serif" font-size="14.00" fill="#000000"> 3: 0</text>
<text text-anchor="start" x="98.1182" y="-638.3" font-family="Times,serif" font-size="14.00" fill="#000000"> 4: int j = 0;</text>
<text text-anchor="start" x="98.1182" y="-624.3" font-family="Times,serif" font-size="14.00" fill="#000000"> 5: 0</text>
<text text-anchor="start" x="98.1182" y="-610.3" font-family="Times,serif" font-size="14.00" fill="#000000"> 6: i</text>
<text text-anchor="start" x="98.1182" y="-596.3" font-family="Times,serif" font-size="14.00" fill="#000000"> 7: [B6.6] = [B6.5]</text>
</g>
<!-- Node0x7fbeea07e540&#45;&gt;Node0x7fbeea07e428 -->
<g id="edge8" class="edge">
<title>Node0x7fbeea07e540&#45;&gt;Node0x7fbeea07e428</title>
<path fill="none" stroke="#000000" d="M150.6729,-589.2696C150.6729,-580.4916 150.6729,-571.4813 150.6729,-562.7857"/>
<polygon fill="#000000" stroke="#000000" points="154.173,-562.7552 150.6729,-552.7552 147.173,-562.7552 154.173,-562.7552"/>
</g>
<!-- Node0x7fbeea07e6b8 -->
<g id="node8" class="node">
<title>Node0x7fbeea07e6b8</title>
<polygon fill="none" stroke="#000000" points="100.4814,-746.5 100.4814,-782.5 200.8643,-782.5 200.8643,-746.5 100.4814,-746.5"/>
<text text-anchor="start" x="108.4814" y="-760.3" font-family="Times,serif" font-size="14.00" fill="#000000">[B7 (ENTRY)]</text>
</g>
<!-- Node0x7fbeea07e6b8&#45;&gt;Node0x7fbeea07e540 -->
<g id="edge9" class="edge">
<title>Node0x7fbeea07e6b8&#45;&gt;Node0x7fbeea07e540</title>
<path fill="none" stroke="#000000" d="M150.6729,-746.2779C150.6729,-738.804 150.6729,-729.6342 150.6729,-719.9474"/>
<polygon fill="#000000" stroke="#000000" points="154.1729,-719.7148 150.6729,-709.7148 147.1729,-719.7148 154.1729,-719.7148"/>
</g>
</g>
</svg>
